<svg xmlns:dc="http://purl.org/dc/elements/1.1/" xmlns:cc="http://creativecommons.org/ns#" xmlns:rdf="http://www.w3.org/1999/02/22-rdf-syntax-ns#" xmlns:svg="http://www.w3.org/2000/svg" xmlns="http://www.w3.org/2000/svg" xmlns:sodipodi="http://sodipodi.sourceforge.net/DTD/sodipodi-0.dtd" xmlns:inkscape="http://www.inkscape.org/namespaces/inkscape" inkscape:export-ydpi="48" inkscape:export-xdpi="48" inkscape:export-filename="/Users/jamie/Desktop/PNG Files/Window-Top.png" inkscape:version="1.0 (4035a4f, 2020-05-01)" sodipodi:docname="8 Bit Dungeon Sprites.svg" viewBox="0 0 256 256" height="256" width="256" xml:space="preserve" id="svg5857" version="1.1"><metadata id="metadata5863"><rdf:RDF><cc:Work rdf:about=""><dc:format>image/svg+xml</dc:format><dc:type rdf:resource="http://purl.org/dc/dcmitype/StillImage"/><dc:title/></cc:Work></rdf:RDF></metadata><defs id="defs5861"/><sodipodi:namedview inkscape:document-rotation="0" inkscape:current-layer="layer134" inkscape:window-maximized="0" inkscape:window-y="23" inkscape:window-x="0" inkscape:cy="62.903159" inkscape:cx="519.01709" inkscape:zoom="1.4447115" showgrid="true" id="namedview5859" inkscape:window-height="1377" inkscape:window-width="2224" inkscape:pageshadow="2" inkscape:pageopacity="0" guidetolerance="10" gridtolerance="10000" objecttolerance="10" borderopacity="1" bordercolor="#666666" pagecolor="#ffffff" showguides="true" inkscape:guide-bbox="true"><inkscape:grid empspacing="32" id="grid5907" type="xygrid"/></sodipodi:namedview><svg:g style="display:inline" inkscape:label="Breakable Brick 01" id="layer16" inkscape:groupmode="layer"><svg:g id="g3142"><svg:rect style="fill:#000000;fill-opacity:1;stroke:none;stroke-width:2;stroke-miterlimit:4;stroke-dasharray:none" id="rect2473-0" width="32" height="32" x="192" y="-192" transform="scale(1,-1)"/><svg:rect style="fill:#000000;fill-opacity:1;stroke:none;stroke-width:2;stroke-miterlimit:4;stroke-dasharray:none" id="rect2475-5" width="32" height="32" x="192" y="-224" transform="scale(1,-1)"/><svg:rect style="fill:#000000;fill-opacity:1;stroke:none;stroke-width:2;stroke-miterlimit:4;stroke-dasharray:none" id="rect2479-9" width="32" height="32" x="224" y="-224" transform="scale(1,-1)"/><svg:rect style="fill:#000000;fill-opacity:1;stroke:none;stroke-width:2;stroke-miterlimit:4;stroke-dasharray:none" id="rect2481-5" width="32" height="32" x="128" y="-160" transform="scale(1,-1)"/><svg:rect style="fill:#000000;fill-opacity:1;stroke:none;stroke-width:2;stroke-miterlimit:4;stroke-dasharray:none" id="rect2483-5" width="32" height="32" x="224" y="-192" transform="scale(1,-1)"/><svg:rect style="fill:#000000;fill-opacity:1;stroke:none;stroke-width:2;stroke-miterlimit:4;stroke-dasharray:none" id="rect2485-5" width="32" height="32" x="224" y="-160" transform="scale(1,-1)"/><svg:rect style="fill:#000000;fill-opacity:1;stroke:none;stroke-width:2;stroke-miterlimit:4;stroke-dasharray:none" id="rect2487-0" width="32" height="32" x="0" y="-224" transform="scale(1,-1)"/><svg:rect style="fill:#000000;fill-opacity:1;stroke:none;stroke-width:2;stroke-miterlimit:4;stroke-dasharray:none" id="rect2489-8" width="32" height="32" x="0" y="-224" transform="scale(1,-1)"/><svg:rect style="fill:#000000;fill-opacity:1;stroke:none;stroke-width:2;stroke-miterlimit:4;stroke-dasharray:none" id="rect2491-9" width="32" height="32" x="0" y="-160" transform="scale(1,-1)"/><svg:rect style="fill:#000000;fill-opacity:1;stroke:none;stroke-width:2;stroke-miterlimit:4;stroke-dasharray:none" id="rect2493-5" width="32" height="32" x="0" y="-192" transform="scale(1,-1)"/><svg:rect style="fill:#000000;fill-opacity:1;stroke:none;stroke-width:2;stroke-miterlimit:4;stroke-dasharray:none" id="rect2497-6" width="32" height="32" x="32" y="-160" transform="scale(1,-1)"/><svg:rect style="fill:#000000;fill-opacity:1;stroke:none;stroke-width:2;stroke-miterlimit:4;stroke-dasharray:none" id="rect2499-2" width="32" height="32" x="64" y="-192" transform="scale(1,-1)"/><svg:rect style="fill:#000000;fill-opacity:1;stroke:none;stroke-width:2;stroke-miterlimit:4;stroke-dasharray:none" id="rect2501-5" width="32" height="32" x="64" y="-224" transform="scale(1,-1)"/><svg:rect style="fill:#000000;fill-opacity:1;stroke:none;stroke-width:2;stroke-miterlimit:4;stroke-dasharray:none" id="rect2503-4" width="32" height="32" x="64" y="-160" transform="scale(1,-1)"/><svg:rect style="fill:#000000;fill-opacity:1;stroke:none;stroke-width:2;stroke-miterlimit:4;stroke-dasharray:none" id="rect2507-2" width="32" height="32" x="96" y="-192" transform="scale(1,-1)"/><svg:rect style="fill:#000000;fill-opacity:1;stroke:none;stroke-width:2;stroke-miterlimit:4;stroke-dasharray:none" id="rect2509-1" width="32" height="32" x="96" y="-160" transform="scale(1,-1)"/><svg:rect style="fill:#000000;fill-opacity:1;stroke:none;stroke-width:2;stroke-miterlimit:4;stroke-dasharray:none" id="rect2511-2" width="32" height="32" x="128" y="-192" transform="scale(1,-1)"/><svg:rect style="fill:#000000;fill-opacity:1;stroke:none;stroke-width:2;stroke-miterlimit:4;stroke-dasharray:none" id="rect2513-6" width="32" height="32" x="128" y="-224" transform="scale(1,-1)"/><svg:rect style="fill:#000000;fill-opacity:1;stroke:none;stroke-width:2;stroke-miterlimit:4;stroke-dasharray:none" id="rect2515-6" width="32" height="32" x="0" y="-64" transform="scale(1,-1)"/><svg:rect style="fill:#000000;fill-opacity:1;stroke:none;stroke-width:2;stroke-miterlimit:4;stroke-dasharray:none" id="rect2517-6" width="32" height="32" x="0" y="-96" transform="scale(1,-1)"/><svg:rect style="fill:#000000;fill-opacity:1;stroke:none;stroke-width:2;stroke-miterlimit:4;stroke-dasharray:none" id="rect2519-0" width="32" height="32" x="0" y="-32" transform="scale(1,-1)"/><svg:rect style="fill:#000000;fill-opacity:1;stroke:none;stroke-width:2;stroke-miterlimit:4;stroke-dasharray:none" id="rect2521-1" width="32" height="32" x="32" y="-96" transform="scale(1,-1)"/><svg:rect style="fill:#000000;fill-opacity:1;stroke:none;stroke-width:2;stroke-miterlimit:4;stroke-dasharray:none" id="rect2523-9" width="32" height="32" x="224" y="-32" transform="scale(1,-1)"/><svg:rect style="fill:#000000;fill-opacity:1;stroke:none;stroke-width:2;stroke-miterlimit:4;stroke-dasharray:none" id="rect2527-5" width="32" height="32" x="32" y="-32" transform="scale(1,-1)"/><svg:rect style="fill:#000000;fill-opacity:1;stroke:none;stroke-width:2;stroke-miterlimit:4;stroke-dasharray:none" id="rect2529-9" width="32" height="32" x="96" y="-64" transform="scale(1,-1)"/><svg:rect style="fill:#000000;fill-opacity:1;stroke:none;stroke-width:2;stroke-miterlimit:4;stroke-dasharray:none" id="rect2531-6" width="32" height="32" x="96" y="-96" transform="scale(1,-1)"/><svg:rect style="fill:#000000;fill-opacity:1;stroke:none;stroke-width:2;stroke-miterlimit:4;stroke-dasharray:none" id="rect2533-2" width="32" height="32" x="96" y="-32" transform="scale(1,-1)"/><svg:rect style="fill:#000000;fill-opacity:1;stroke:none;stroke-width:2;stroke-miterlimit:4;stroke-dasharray:none" id="rect2539-2" width="32" height="32" x="160" y="-96" transform="scale(1,-1)"/><svg:rect style="fill:#000000;fill-opacity:1;stroke:none;stroke-width:2;stroke-miterlimit:4;stroke-dasharray:none" id="rect2541-5" width="32" height="32" x="160" y="-32" transform="scale(1,-1)"/><svg:rect style="fill:#000000;fill-opacity:1;stroke:none;stroke-width:2;stroke-miterlimit:4;stroke-dasharray:none" id="rect2543-7" width="32" height="32" x="192" y="-96" transform="scale(1,-1)"/><svg:rect style="fill:#000000;fill-opacity:1;stroke:none;stroke-width:2;stroke-miterlimit:4;stroke-dasharray:none" id="rect2545-8" width="32" height="32" x="192" y="-64" transform="scale(1,-1)"/><svg:rect style="fill:#000000;fill-opacity:1;stroke:none;stroke-width:2;stroke-miterlimit:4;stroke-dasharray:none" id="rect2547-5" width="32" height="32" x="192" y="-32" transform="scale(1,-1)"/><svg:rect style="fill:#000000;fill-opacity:1;stroke:none;stroke-width:2;stroke-miterlimit:4;stroke-dasharray:none" id="rect2549-3" width="32" height="32" x="224" y="-64" transform="scale(1,-1)"/><svg:rect style="fill:#000000;fill-opacity:1;stroke:none;stroke-width:2;stroke-miterlimit:4;stroke-dasharray:none" id="rect2551-2" width="32" height="32" x="224" y="-96" transform="scale(1,-1)"/><svg:rect transform="scale(1,-1)" y="-64" x="128" height="32" width="32" id="rect2553-8" style="fill:#000000;fill-opacity:1;stroke:none;stroke-width:2;stroke-miterlimit:4;stroke-dasharray:none"/><svg:rect style="fill:#000000;fill-opacity:1;stroke:none;stroke-width:2;stroke-miterlimit:4;stroke-dasharray:none" id="rect2555-9" width="32" height="32" x="128" y="-32" transform="scale(1,-1)"/><svg:rect transform="scale(1,-1)" y="-224" x="32" height="32" width="32" id="rect2557-3" style="fill:#000000;fill-opacity:1;stroke:none;stroke-width:2;stroke-miterlimit:4;stroke-dasharray:none"/></svg:g></svg:g></svg>