<svg xmlns:dc="http://purl.org/dc/elements/1.1/" xmlns:cc="http://creativecommons.org/ns#" xmlns:rdf="http://www.w3.org/1999/02/22-rdf-syntax-ns#" xmlns:svg="http://www.w3.org/2000/svg" xmlns="http://www.w3.org/2000/svg" xmlns:sodipodi="http://sodipodi.sourceforge.net/DTD/sodipodi-0.dtd" xmlns:inkscape="http://www.inkscape.org/namespaces/inkscape" inkscape:export-ydpi="48" inkscape:export-xdpi="48" inkscape:export-filename="/Users/jamie/Desktop/PNG Files/Window-Top.png" inkscape:version="1.0 (4035a4f, 2020-05-01)" sodipodi:docname="8 Bit Dungeon Sprites.svg" viewBox="0 0 256 256" height="256" width="256" xml:space="preserve" id="svg5857" version="1.1"><metadata id="metadata5863"><rdf:RDF><cc:Work rdf:about=""><dc:format>image/svg+xml</dc:format><dc:type rdf:resource="http://purl.org/dc/dcmitype/StillImage"/><dc:title/></cc:Work></rdf:RDF></metadata><defs id="defs5861"/><sodipodi:namedview inkscape:document-rotation="0" inkscape:current-layer="layer134" inkscape:window-maximized="0" inkscape:window-y="23" inkscape:window-x="0" inkscape:cy="62.903159" inkscape:cx="519.01709" inkscape:zoom="1.4447115" showgrid="true" id="namedview5859" inkscape:window-height="1377" inkscape:window-width="2224" inkscape:pageshadow="2" inkscape:pageopacity="0" guidetolerance="10" gridtolerance="10000" objecttolerance="10" borderopacity="1" bordercolor="#666666" pagecolor="#ffffff" showguides="true" inkscape:guide-bbox="true"><inkscape:grid empspacing="32" id="grid5907" type="xygrid"/></sodipodi:namedview><svg:g inkscape:groupmode="layer" id="layer1" inkscape:label="Solid Brick" style="display:inline"><svg:rect style="fill:#000000;fill-opacity:1;stroke:none;stroke-width:2;stroke-miterlimit:4;stroke-dasharray:none" id="rect5929-08" width="32" height="32" x="0" y="-192" transform="scale(1,-1)"/><svg:rect style="fill:#000000;fill-opacity:1;stroke:none;stroke-width:2;stroke-miterlimit:4;stroke-dasharray:none" id="rect5929-5-1" width="32" height="32" x="0" y="-224" transform="scale(1,-1)"/><svg:rect style="fill:#000000;fill-opacity:1;stroke:none;stroke-width:2;stroke-miterlimit:4;stroke-dasharray:none" id="rect5929-5-9-48" width="32" height="32" x="0" y="-160" transform="scale(1,-1)"/><svg:rect style="fill:#000000;fill-opacity:1;stroke:none;stroke-width:2;stroke-miterlimit:4;stroke-dasharray:none" id="rect5929-54-8" width="32" height="32" x="32" y="-192" transform="scale(1,-1)"/><svg:rect style="fill:#000000;fill-opacity:1;stroke:none;stroke-width:2;stroke-miterlimit:4;stroke-dasharray:none" id="rect5929-5-91-45" width="32" height="32" x="192" y="-160" transform="scale(1,-1)"/><svg:rect style="fill:#000000;fill-opacity:1;stroke:none;stroke-width:2;stroke-miterlimit:4;stroke-dasharray:none" id="rect5929-5-9-5-8" width="32" height="32" x="32" y="-160" transform="scale(1,-1)"/><svg:rect style="fill:#000000;fill-opacity:1;stroke:none;stroke-width:2;stroke-miterlimit:4;stroke-dasharray:none" id="rect5929-541-4" width="32" height="32" x="64" y="-192" transform="scale(1,-1)"/><svg:rect style="fill:#000000;fill-opacity:1;stroke:none;stroke-width:2;stroke-miterlimit:4;stroke-dasharray:none" id="rect5929-5-8-58" width="32" height="32" x="64" y="-224" transform="scale(1,-1)"/><svg:rect style="fill:#000000;fill-opacity:1;stroke:none;stroke-width:2;stroke-miterlimit:4;stroke-dasharray:none" id="rect5929-5-9-8-8" width="32" height="32" x="64" y="-160" transform="scale(1,-1)"/><svg:rect style="fill:#000000;fill-opacity:1;stroke:none;stroke-width:2;stroke-miterlimit:4;stroke-dasharray:none" id="rect5929-54-3-9" width="32" height="32" x="96" y="-224" transform="scale(1,-1)"/><svg:rect style="fill:#000000;fill-opacity:1;stroke:none;stroke-width:2;stroke-miterlimit:4;stroke-dasharray:none" id="rect5929-5-9-7-5-47" width="32" height="32" x="96" y="-192" transform="scale(1,-1)"/><svg:rect style="fill:#000000;fill-opacity:1;stroke:none;stroke-width:2;stroke-miterlimit:4;stroke-dasharray:none" id="rect5929-5-9-5-2-0" width="32" height="32" x="96" y="-160" transform="scale(1,-1)"/><svg:rect style="fill:#000000;fill-opacity:1;stroke:none;stroke-width:2;stroke-miterlimit:4;stroke-dasharray:none" id="rect5929-541-2-4" width="32" height="32" x="128" y="-192" transform="scale(1,-1)"/><svg:rect style="fill:#000000;fill-opacity:1;stroke:none;stroke-width:2;stroke-miterlimit:4;stroke-dasharray:none" id="rect5929-5-8-6-0" width="32" height="32" x="128" y="-224" transform="scale(1,-1)"/><svg:rect style="fill:#000000;fill-opacity:1;stroke:none;stroke-width:2;stroke-miterlimit:4;stroke-dasharray:none" id="rect5929-5-9-8-6-65" width="32" height="32" x="128" y="-160" transform="scale(1,-1)"/><svg:rect style="fill:#000000;fill-opacity:1;stroke:none;stroke-width:2;stroke-miterlimit:4;stroke-dasharray:none" id="rect5929-54-3-7-3" width="32" height="32" x="160" y="-224" transform="scale(1,-1)"/><svg:rect style="fill:#000000;fill-opacity:1;stroke:none;stroke-width:2;stroke-miterlimit:4;stroke-dasharray:none" id="rect5929-5-9-7-5-8-85" width="32" height="32" x="160" y="-192" transform="scale(1,-1)"/><svg:rect style="fill:#000000;fill-opacity:1;stroke:none;stroke-width:2;stroke-miterlimit:4;stroke-dasharray:none" id="rect5929-5-9-5-2-4-1" width="32" height="32" x="160" y="-160" transform="scale(1,-1)"/><svg:rect style="fill:#000000;fill-opacity:1;stroke:none;stroke-width:2;stroke-miterlimit:4;stroke-dasharray:none" id="rect5929-5-91-1-7-4" width="32" height="32" x="192" y="-192" transform="scale(1,-1)"/><svg:rect style="fill:#000000;fill-opacity:1;stroke:none;stroke-width:2;stroke-miterlimit:4;stroke-dasharray:none" id="rect5929-1-6" width="32" height="32" x="0" y="-64" transform="scale(1,-1)"/><svg:rect style="fill:#000000;fill-opacity:1;stroke:none;stroke-width:2;stroke-miterlimit:4;stroke-dasharray:none" id="rect5929-5-87-7" width="32" height="32" x="0" y="-96" transform="scale(1,-1)"/><svg:rect style="fill:#000000;fill-opacity:1;stroke:none;stroke-width:2;stroke-miterlimit:4;stroke-dasharray:none" id="rect5929-5-9-87-5" width="32" height="32" x="0" y="-32" transform="scale(1,-1)"/><svg:rect style="fill:#000000;fill-opacity:1;stroke:none;stroke-width:2;stroke-miterlimit:4;stroke-dasharray:none" id="rect5929-54-7-5" width="32" height="32" x="32" y="-96" transform="scale(1,-1)"/><svg:rect style="fill:#000000;fill-opacity:1;stroke:none;stroke-width:2;stroke-miterlimit:4;stroke-dasharray:none" id="rect5929-5-91-4-0" width="32" height="32" x="224" y="-32" transform="scale(1,-1)"/><svg:rect style="fill:#000000;fill-opacity:1;stroke:none;stroke-width:2;stroke-miterlimit:4;stroke-dasharray:none" id="rect5929-5-9-5-9-2" width="32" height="32" x="32" y="-32" transform="scale(1,-1)"/><svg:rect style="fill:#000000;fill-opacity:1;stroke:none;stroke-width:2;stroke-miterlimit:4;stroke-dasharray:none" id="rect5929-541-1-0" width="32" height="32" x="64" y="-64" transform="scale(1,-1)"/><svg:rect style="fill:#000000;fill-opacity:1;stroke:none;stroke-width:2;stroke-miterlimit:4;stroke-dasharray:none" id="rect5929-5-8-5-7" width="32" height="32" x="64" y="-96" transform="scale(1,-1)"/><svg:rect style="fill:#000000;fill-opacity:1;stroke:none;stroke-width:2;stroke-miterlimit:4;stroke-dasharray:none" id="rect5929-5-9-8-5-7" width="32" height="32" x="64" y="-32" transform="scale(1,-1)"/><svg:rect style="fill:#000000;fill-opacity:1;stroke:none;stroke-width:2;stroke-miterlimit:4;stroke-dasharray:none" id="rect5929-54-3-5-9" width="32" height="32" x="128" y="-96" transform="scale(1,-1)"/><svg:rect style="fill:#000000;fill-opacity:1;stroke:none;stroke-width:2;stroke-miterlimit:4;stroke-dasharray:none" id="rect5929-5-9-7-5-82-7" width="32" height="32" x="128" y="-64" transform="scale(1,-1)"/><svg:rect style="fill:#000000;fill-opacity:1;stroke:none;stroke-width:2;stroke-miterlimit:4;stroke-dasharray:none" id="rect5929-5-9-5-2-9-5" width="32" height="32" x="128" y="-32" transform="scale(1,-1)"/><svg:rect style="fill:#000000;fill-opacity:1;stroke:none;stroke-width:2;stroke-miterlimit:4;stroke-dasharray:none" id="rect5929-541-2-8-3" width="32" height="32" x="160" y="-64" transform="scale(1,-1)"/><svg:rect style="fill:#000000;fill-opacity:1;stroke:none;stroke-width:2;stroke-miterlimit:4;stroke-dasharray:none" id="rect5929-5-8-6-2-9" width="32" height="32" x="160" y="-96" transform="scale(1,-1)"/><svg:rect style="fill:#000000;fill-opacity:1;stroke:none;stroke-width:2;stroke-miterlimit:4;stroke-dasharray:none" id="rect5929-5-9-8-6-0-9" width="32" height="32" x="160" y="-32" transform="scale(1,-1)"/><svg:rect style="fill:#000000;fill-opacity:1;stroke:none;stroke-width:2;stroke-miterlimit:4;stroke-dasharray:none" id="rect5929-54-3-7-7-4" width="32" height="32" x="192" y="-96" transform="scale(1,-1)"/><svg:rect style="fill:#000000;fill-opacity:1;stroke:none;stroke-width:2;stroke-miterlimit:4;stroke-dasharray:none" id="rect5929-5-9-5-2-4-8-1" width="32" height="32" x="192" y="-32" transform="scale(1,-1)"/><svg:rect style="fill:#000000;fill-opacity:1;stroke:none;stroke-width:2;stroke-miterlimit:4;stroke-dasharray:none" id="rect5929-5-91-1-5-5" width="32" height="32" x="224" y="-64" transform="scale(1,-1)"/><svg:rect style="fill:#000000;fill-opacity:1;stroke:none;stroke-width:2;stroke-miterlimit:4;stroke-dasharray:none" id="rect5929-5-91-1-7-8-9" width="32" height="32" x="224" y="-96" transform="scale(1,-1)"/><svg:rect transform="scale(1,-1)" y="-64" x="96" height="32" width="32" id="rect1537" style="fill:#000000;fill-opacity:1;stroke:none;stroke-width:2;stroke-miterlimit:4;stroke-dasharray:none"/><svg:rect transform="scale(1,-1)" y="-96" x="96" height="32" width="32" id="rect1539" style="fill:#000000;fill-opacity:1;stroke:none;stroke-width:2;stroke-miterlimit:4;stroke-dasharray:none"/><svg:rect transform="scale(1,-1)" y="-32" x="96" height="32" width="32" id="rect1541" style="fill:#000000;fill-opacity:1;stroke:none;stroke-width:2;stroke-miterlimit:4;stroke-dasharray:none"/><svg:rect transform="scale(1,-1)" y="-160" x="224" height="32" width="32" id="rect1543" style="fill:#000000;fill-opacity:1;stroke:none;stroke-width:2;stroke-miterlimit:4;stroke-dasharray:none"/><svg:rect transform="scale(1,-1)" y="-192" x="224" height="32" width="32" id="rect1545" style="fill:#000000;fill-opacity:1;stroke:none;stroke-width:2;stroke-miterlimit:4;stroke-dasharray:none"/><svg:rect transform="scale(1,-1)" y="-224" x="224" height="32" width="32" id="rect1547" style="fill:#000000;fill-opacity:1;stroke:none;stroke-width:2;stroke-miterlimit:4;stroke-dasharray:none"/><svg:rect transform="scale(1,-1)" y="-128" x="0" height="32" width="32" id="rect1549" style="fill:#000000;fill-opacity:1;stroke:none;stroke-width:2;stroke-miterlimit:4;stroke-dasharray:none"/><svg:rect transform="scale(1,-1)" y="-128" x="32" height="32" width="32" id="rect1551" style="fill:#000000;fill-opacity:1;stroke:none;stroke-width:2;stroke-miterlimit:4;stroke-dasharray:none"/><svg:rect transform="scale(1,-1)" y="-128" x="64" height="32" width="32" id="rect1553" style="fill:#000000;fill-opacity:1;stroke:none;stroke-width:2;stroke-miterlimit:4;stroke-dasharray:none"/><svg:rect transform="scale(1,-1)" y="-128" x="128" height="32" width="32" id="rect1555" style="fill:#000000;fill-opacity:1;stroke:none;stroke-width:2;stroke-miterlimit:4;stroke-dasharray:none"/><svg:rect transform="scale(1,-1)" y="-128" x="160" height="32" width="32" id="rect1557" style="fill:#000000;fill-opacity:1;stroke:none;stroke-width:2;stroke-miterlimit:4;stroke-dasharray:none"/><svg:rect transform="scale(1,-1)" y="-128" x="192" height="32" width="32" id="rect1559" style="fill:#000000;fill-opacity:1;stroke:none;stroke-width:2;stroke-miterlimit:4;stroke-dasharray:none"/><svg:rect transform="scale(1,-1)" y="-128" x="224" height="32" width="32" id="rect1561" style="fill:#000000;fill-opacity:1;stroke:none;stroke-width:2;stroke-miterlimit:4;stroke-dasharray:none"/><svg:rect style="fill:#000000;fill-opacity:1;stroke:none;stroke-width:2;stroke-miterlimit:4;stroke-dasharray:none" id="rect1563" width="32" height="32" x="96" y="-128" transform="scale(1,-1)"/><svg:rect transform="scale(1,-1)" y="-256" x="0" height="32" width="32" id="rect4552" style="fill:#000000;fill-opacity:1;stroke:none;stroke-width:2;stroke-miterlimit:4;stroke-dasharray:none"/><svg:rect transform="scale(1,-1)" y="-256" x="32" height="32" width="32" id="rect4554" style="fill:#000000;fill-opacity:1;stroke:none;stroke-width:2;stroke-miterlimit:4;stroke-dasharray:none"/><svg:rect transform="scale(1,-1)" y="-256" x="64" height="32" width="32" id="rect4556" style="fill:#000000;fill-opacity:1;stroke:none;stroke-width:2;stroke-miterlimit:4;stroke-dasharray:none"/><svg:rect transform="scale(1,-1)" y="-256" x="96" height="32" width="32" id="rect4558" style="fill:#000000;fill-opacity:1;stroke:none;stroke-width:2;stroke-miterlimit:4;stroke-dasharray:none"/><svg:rect transform="scale(1,-1)" y="-256" x="128" height="32" width="32" id="rect4560" style="fill:#000000;fill-opacity:1;stroke:none;stroke-width:2;stroke-miterlimit:4;stroke-dasharray:none"/><svg:rect transform="scale(1,-1)" y="-256" x="160" height="32" width="32" id="rect4562" style="fill:#000000;fill-opacity:1;stroke:none;stroke-width:2;stroke-miterlimit:4;stroke-dasharray:none"/><svg:rect transform="scale(1,-1)" y="-256" x="192" height="32" width="32" id="rect4564" style="fill:#000000;fill-opacity:1;stroke:none;stroke-width:2;stroke-miterlimit:4;stroke-dasharray:none"/><svg:rect style="fill:#000000;fill-opacity:1;stroke:none;stroke-width:2;stroke-miterlimit:4;stroke-dasharray:none" id="rect4566" width="32" height="32" x="224" y="-256" transform="scale(1,-1)"/></svg:g></svg>