<svg xmlns:dc="http://purl.org/dc/elements/1.1/" xmlns:cc="http://creativecommons.org/ns#" xmlns:rdf="http://www.w3.org/1999/02/22-rdf-syntax-ns#" xmlns:svg="http://www.w3.org/2000/svg" xmlns="http://www.w3.org/2000/svg" xmlns:sodipodi="http://sodipodi.sourceforge.net/DTD/sodipodi-0.dtd" xmlns:inkscape="http://www.inkscape.org/namespaces/inkscape" inkscape:export-ydpi="48" inkscape:export-xdpi="48" inkscape:export-filename="/Users/jamie/Desktop/PNG Files/Window-Top.png" inkscape:version="1.0 (4035a4f, 2020-05-01)" sodipodi:docname="8 Bit Dungeon Sprites.svg" viewBox="0 0 256 256" height="256" width="256" xml:space="preserve" id="svg5857" version="1.1"><metadata id="metadata5863"><rdf:RDF><cc:Work rdf:about=""><dc:format>image/svg+xml</dc:format><dc:type rdf:resource="http://purl.org/dc/dcmitype/StillImage"/><dc:title/></cc:Work></rdf:RDF></metadata><defs id="defs5861"/><sodipodi:namedview inkscape:document-rotation="0" inkscape:current-layer="layer134" inkscape:window-maximized="0" inkscape:window-y="23" inkscape:window-x="0" inkscape:cy="62.903159" inkscape:cx="519.01709" inkscape:zoom="1.4447115" showgrid="true" id="namedview5859" inkscape:window-height="1377" inkscape:window-width="2224" inkscape:pageshadow="2" inkscape:pageopacity="0" guidetolerance="10" gridtolerance="10000" objecttolerance="10" borderopacity="1" bordercolor="#666666" pagecolor="#ffffff" showguides="true" inkscape:guide-bbox="true"><inkscape:grid empspacing="32" id="grid5907" type="xygrid"/></sodipodi:namedview><svg:g style="display:inline" inkscape:label="Bricks" id="layer5" inkscape:groupmode="layer"><svg:g id="g2701"><svg:rect transform="scale(1,-1)" y="-192" x="192" height="32" width="32" id="rect2473" style="fill:#000000;fill-opacity:1;stroke:none;stroke-width:2;stroke-miterlimit:4;stroke-dasharray:none"/><svg:rect transform="scale(1,-1)" y="-224" x="192" height="32" width="32" id="rect2475" style="fill:#000000;fill-opacity:1;stroke:none;stroke-width:2;stroke-miterlimit:4;stroke-dasharray:none"/><svg:rect transform="scale(1,-1)" y="-160" x="192" height="32" width="32" id="rect2477" style="fill:#000000;fill-opacity:1;stroke:none;stroke-width:2;stroke-miterlimit:4;stroke-dasharray:none"/><svg:rect transform="scale(1,-1)" y="-224" x="224" height="32" width="32" id="rect2479" style="fill:#000000;fill-opacity:1;stroke:none;stroke-width:2;stroke-miterlimit:4;stroke-dasharray:none"/><svg:rect transform="scale(1,-1)" y="-160" x="128" height="32" width="32" id="rect2481" style="fill:#000000;fill-opacity:1;stroke:none;stroke-width:2;stroke-miterlimit:4;stroke-dasharray:none"/><svg:rect transform="scale(1,-1)" y="-192" x="224" height="32" width="32" id="rect2483" style="fill:#000000;fill-opacity:1;stroke:none;stroke-width:2;stroke-miterlimit:4;stroke-dasharray:none"/><svg:rect transform="scale(1,-1)" y="-160" x="224" height="32" width="32" id="rect2485" style="fill:#000000;fill-opacity:1;stroke:none;stroke-width:2;stroke-miterlimit:4;stroke-dasharray:none"/><svg:rect transform="scale(1,-1)" y="-224" x="0" height="32" width="32" id="rect2487" style="fill:#000000;fill-opacity:1;stroke:none;stroke-width:2;stroke-miterlimit:4;stroke-dasharray:none"/><svg:rect transform="scale(1,-1)" y="-224" x="0" height="32" width="32" id="rect2489" style="fill:#000000;fill-opacity:1;stroke:none;stroke-width:2;stroke-miterlimit:4;stroke-dasharray:none"/><svg:rect transform="scale(1,-1)" y="-160" x="0" height="32" width="32" id="rect2491" style="fill:#000000;fill-opacity:1;stroke:none;stroke-width:2;stroke-miterlimit:4;stroke-dasharray:none"/><svg:rect transform="scale(1,-1)" y="-192" x="0" height="32" width="32" id="rect2493" style="fill:#000000;fill-opacity:1;stroke:none;stroke-width:2;stroke-miterlimit:4;stroke-dasharray:none"/><svg:rect transform="scale(1,-1)" y="-192" x="32" height="32" width="32" id="rect2495" style="fill:#000000;fill-opacity:1;stroke:none;stroke-width:2;stroke-miterlimit:4;stroke-dasharray:none"/><svg:rect transform="scale(1,-1)" y="-160" x="32" height="32" width="32" id="rect2497" style="fill:#000000;fill-opacity:1;stroke:none;stroke-width:2;stroke-miterlimit:4;stroke-dasharray:none"/><svg:rect transform="scale(1,-1)" y="-192" x="64" height="32" width="32" id="rect2499" style="fill:#000000;fill-opacity:1;stroke:none;stroke-width:2;stroke-miterlimit:4;stroke-dasharray:none"/><svg:rect transform="scale(1,-1)" y="-224" x="64" height="32" width="32" id="rect2501" style="fill:#000000;fill-opacity:1;stroke:none;stroke-width:2;stroke-miterlimit:4;stroke-dasharray:none"/><svg:rect transform="scale(1,-1)" y="-160" x="64" height="32" width="32" id="rect2503" style="fill:#000000;fill-opacity:1;stroke:none;stroke-width:2;stroke-miterlimit:4;stroke-dasharray:none"/><svg:rect transform="scale(1,-1)" y="-224" x="96" height="32" width="32" id="rect2505" style="fill:#000000;fill-opacity:1;stroke:none;stroke-width:2;stroke-miterlimit:4;stroke-dasharray:none"/><svg:rect transform="scale(1,-1)" y="-192" x="96" height="32" width="32" id="rect2507" style="fill:#000000;fill-opacity:1;stroke:none;stroke-width:2;stroke-miterlimit:4;stroke-dasharray:none"/><svg:rect transform="scale(1,-1)" y="-160" x="96" height="32" width="32" id="rect2509" style="fill:#000000;fill-opacity:1;stroke:none;stroke-width:2;stroke-miterlimit:4;stroke-dasharray:none"/><svg:rect transform="scale(1,-1)" y="-192" x="128" height="32" width="32" id="rect2511" style="fill:#000000;fill-opacity:1;stroke:none;stroke-width:2;stroke-miterlimit:4;stroke-dasharray:none"/><svg:rect transform="scale(1,-1)" y="-224" x="128" height="32" width="32" id="rect2513" style="fill:#000000;fill-opacity:1;stroke:none;stroke-width:2;stroke-miterlimit:4;stroke-dasharray:none"/><svg:rect transform="scale(1,-1)" y="-64" x="0" height="32" width="32" id="rect2515" style="fill:#000000;fill-opacity:1;stroke:none;stroke-width:2;stroke-miterlimit:4;stroke-dasharray:none"/><svg:rect transform="scale(1,-1)" y="-96" x="0" height="32" width="32" id="rect2517" style="fill:#000000;fill-opacity:1;stroke:none;stroke-width:2;stroke-miterlimit:4;stroke-dasharray:none"/><svg:rect transform="scale(1,-1)" y="-32" x="0" height="32" width="32" id="rect2519" style="fill:#000000;fill-opacity:1;stroke:none;stroke-width:2;stroke-miterlimit:4;stroke-dasharray:none"/><svg:rect transform="scale(1,-1)" y="-96" x="32" height="32" width="32" id="rect2521" style="fill:#000000;fill-opacity:1;stroke:none;stroke-width:2;stroke-miterlimit:4;stroke-dasharray:none"/><svg:rect transform="scale(1,-1)" y="-32" x="224" height="32" width="32" id="rect2523" style="fill:#000000;fill-opacity:1;stroke:none;stroke-width:2;stroke-miterlimit:4;stroke-dasharray:none"/><svg:rect transform="scale(1,-1)" y="-64" x="32" height="32" width="32" id="rect2525" style="fill:#000000;fill-opacity:1;stroke:none;stroke-width:2;stroke-miterlimit:4;stroke-dasharray:none"/><svg:rect transform="scale(1,-1)" y="-32" x="32" height="32" width="32" id="rect2527" style="fill:#000000;fill-opacity:1;stroke:none;stroke-width:2;stroke-miterlimit:4;stroke-dasharray:none"/><svg:rect transform="scale(1,-1)" y="-64" x="96" height="32" width="32" id="rect2529" style="fill:#000000;fill-opacity:1;stroke:none;stroke-width:2;stroke-miterlimit:4;stroke-dasharray:none"/><svg:rect transform="scale(1,-1)" y="-96" x="96" height="32" width="32" id="rect2531" style="fill:#000000;fill-opacity:1;stroke:none;stroke-width:2;stroke-miterlimit:4;stroke-dasharray:none"/><svg:rect transform="scale(1,-1)" y="-32" x="96" height="32" width="32" id="rect2533" style="fill:#000000;fill-opacity:1;stroke:none;stroke-width:2;stroke-miterlimit:4;stroke-dasharray:none"/><svg:rect transform="scale(1,-1)" y="-96" x="128" height="32" width="32" id="rect2535" style="fill:#000000;fill-opacity:1;stroke:none;stroke-width:2;stroke-miterlimit:4;stroke-dasharray:none"/><svg:rect transform="scale(1,-1)" y="-64" x="160" height="32" width="32" id="rect2537" style="fill:#000000;fill-opacity:1;stroke:none;stroke-width:2;stroke-miterlimit:4;stroke-dasharray:none"/><svg:rect transform="scale(1,-1)" y="-96" x="160" height="32" width="32" id="rect2539" style="fill:#000000;fill-opacity:1;stroke:none;stroke-width:2;stroke-miterlimit:4;stroke-dasharray:none"/><svg:rect transform="scale(1,-1)" y="-32" x="160" height="32" width="32" id="rect2541" style="fill:#000000;fill-opacity:1;stroke:none;stroke-width:2;stroke-miterlimit:4;stroke-dasharray:none"/><svg:rect transform="scale(1,-1)" y="-96" x="192" height="32" width="32" id="rect2543" style="fill:#000000;fill-opacity:1;stroke:none;stroke-width:2;stroke-miterlimit:4;stroke-dasharray:none"/><svg:rect transform="scale(1,-1)" y="-64" x="192" height="32" width="32" id="rect2545" style="fill:#000000;fill-opacity:1;stroke:none;stroke-width:2;stroke-miterlimit:4;stroke-dasharray:none"/><svg:rect transform="scale(1,-1)" y="-32" x="192" height="32" width="32" id="rect2547" style="fill:#000000;fill-opacity:1;stroke:none;stroke-width:2;stroke-miterlimit:4;stroke-dasharray:none"/><svg:rect transform="scale(1,-1)" y="-64" x="224" height="32" width="32" id="rect2549" style="fill:#000000;fill-opacity:1;stroke:none;stroke-width:2;stroke-miterlimit:4;stroke-dasharray:none"/><svg:rect transform="scale(1,-1)" y="-96" x="224" height="32" width="32" id="rect2551" style="fill:#000000;fill-opacity:1;stroke:none;stroke-width:2;stroke-miterlimit:4;stroke-dasharray:none"/><svg:rect style="fill:#000000;fill-opacity:1;stroke:none;stroke-width:2;stroke-miterlimit:4;stroke-dasharray:none" id="rect2553" width="32" height="32" x="128" y="-64" transform="scale(1,-1)"/><svg:rect transform="scale(1,-1)" y="-32" x="128" height="32" width="32" id="rect2555" style="fill:#000000;fill-opacity:1;stroke:none;stroke-width:2;stroke-miterlimit:4;stroke-dasharray:none"/><svg:rect style="fill:#000000;fill-opacity:1;stroke:none;stroke-width:2;stroke-miterlimit:4;stroke-dasharray:none" id="rect2557" width="32" height="32" x="32" y="-224" transform="scale(1,-1)"/></svg:g></svg:g></svg>