<svg xmlns:dc="http://purl.org/dc/elements/1.1/" xmlns:cc="http://creativecommons.org/ns#" xmlns:rdf="http://www.w3.org/1999/02/22-rdf-syntax-ns#" xmlns:svg="http://www.w3.org/2000/svg" xmlns="http://www.w3.org/2000/svg" xmlns:sodipodi="http://sodipodi.sourceforge.net/DTD/sodipodi-0.dtd" xmlns:inkscape="http://www.inkscape.org/namespaces/inkscape" inkscape:export-ydpi="48" inkscape:export-xdpi="48" inkscape:export-filename="/Users/jamie/Desktop/PNG Files/Window-Top.png" inkscape:version="1.0 (4035a4f, 2020-05-01)" sodipodi:docname="8 Bit Dungeon Sprites.svg" viewBox="0 0 256 256" height="256" width="256" xml:space="preserve" id="svg5857" version="1.1"><metadata id="metadata5863"><rdf:RDF><cc:Work rdf:about=""><dc:format>image/svg+xml</dc:format><dc:type rdf:resource="http://purl.org/dc/dcmitype/StillImage"/><dc:title/></cc:Work></rdf:RDF></metadata><defs id="defs5861"/><sodipodi:namedview inkscape:document-rotation="0" inkscape:current-layer="layer134" inkscape:window-maximized="0" inkscape:window-y="23" inkscape:window-x="0" inkscape:cy="62.903159" inkscape:cx="519.01709" inkscape:zoom="1.4447115" showgrid="true" id="namedview5859" inkscape:window-height="1377" inkscape:window-width="2224" inkscape:pageshadow="2" inkscape:pageopacity="0" guidetolerance="10" gridtolerance="10000" objecttolerance="10" borderopacity="1" bordercolor="#666666" pagecolor="#ffffff" showguides="true" inkscape:guide-bbox="true"><inkscape:grid empspacing="32" id="grid5907" type="xygrid"/></sodipodi:namedview><svg:g style="display:inline" inkscape:label="Cave Corner 3" id="layer61" inkscape:groupmode="layer"><svg:rect style="display:inline;fill:#000000;fill-opacity:1;stroke:none;stroke-width:2;stroke-miterlimit:4;stroke-dasharray:none" id="rect2265-9-4-6" width="32" height="32" x="0" y="-32" transform="scale(1,-1)"/><svg:rect transform="scale(1,-1)" y="-32" x="32" height="32" width="32" id="rect2474-6-8" style="display:inline;fill:#000000;fill-opacity:1;stroke:none;stroke-width:2;stroke-miterlimit:4;stroke-dasharray:none"/><svg:rect style="display:inline;fill:#000000;fill-opacity:1;stroke:none;stroke-width:2;stroke-miterlimit:4;stroke-dasharray:none" id="rect2476-7-6" width="32" height="32" x="64" y="-32" transform="scale(1,-1)"/><svg:rect transform="scale(1,-1)" y="-32" x="96" height="32" width="32" id="rect2478-5-0" style="display:inline;fill:#000000;fill-opacity:1;stroke:none;stroke-width:2;stroke-miterlimit:4;stroke-dasharray:none"/><svg:rect style="display:inline;fill:#000000;fill-opacity:1;stroke:none;stroke-width:2;stroke-miterlimit:4;stroke-dasharray:none" id="rect2480-5-3" width="32" height="32" x="128" y="-32" transform="scale(1,-1)"/><svg:rect transform="scale(1,-1)" y="-32" x="160" height="32" width="32" id="rect2482-0-1" style="display:inline;fill:#000000;fill-opacity:1;stroke:none;stroke-width:2;stroke-miterlimit:4;stroke-dasharray:none"/><svg:rect style="display:inline;fill:#000000;fill-opacity:1;stroke:none;stroke-width:2;stroke-miterlimit:4;stroke-dasharray:none" id="rect2484-5-0" width="32" height="32" x="192" y="-32" transform="scale(1,-1)"/><svg:rect style="display:inline;fill:#000000;fill-opacity:1;stroke:none;stroke-width:2;stroke-miterlimit:4;stroke-dasharray:none" id="rect2679-3-8" width="32" height="32" x="-64" y="-96" transform="matrix(0,-1,-1,0,0,0)"/><svg:rect transform="matrix(0,-1,-1,0,0,0)" y="-256" x="-64" height="32" width="32" id="rect2681-9-7" style="display:inline;fill:#000000;fill-opacity:1;stroke:none;stroke-width:2;stroke-miterlimit:4;stroke-dasharray:none"/><svg:rect style="display:inline;fill:#000000;fill-opacity:1;stroke:none;stroke-width:2;stroke-miterlimit:4;stroke-dasharray:none" id="rect2683-4-4" width="32" height="32" x="-96" y="-256" transform="matrix(0,-1,-1,0,0,0)"/><svg:rect transform="matrix(0,-1,-1,0,0,0)" y="-256" x="-128" height="32" width="32" id="rect2685-9-6" style="display:inline;fill:#000000;fill-opacity:1;stroke:none;stroke-width:2;stroke-miterlimit:4;stroke-dasharray:none"/><svg:rect style="display:inline;fill:#000000;fill-opacity:1;stroke:none;stroke-width:2;stroke-miterlimit:4;stroke-dasharray:none" id="rect2687-6-7" width="32" height="32" x="-160" y="-256" transform="matrix(0,-1,-1,0,0,0)"/><svg:rect transform="matrix(0,-1,-1,0,0,0)" y="-256" x="-192" height="32" width="32" id="rect2690-5-9" style="display:inline;fill:#000000;fill-opacity:1;stroke:none;stroke-width:2;stroke-miterlimit:4;stroke-dasharray:none"/><svg:rect style="display:inline;fill:#000000;fill-opacity:1;stroke:none;stroke-width:2;stroke-miterlimit:4;stroke-dasharray:none" id="rect2692-1-5" width="32" height="32" x="-224" y="-256" transform="matrix(0,-1,-1,0,0,0)"/><svg:rect transform="matrix(0,-1,-1,0,0,0)" y="-256" x="-256" height="32" width="32" id="rect2694-3-7" style="display:inline;fill:#000000;fill-opacity:1;stroke:none;stroke-width:2;stroke-miterlimit:4;stroke-dasharray:none"/><svg:rect transform="matrix(0,-1,-1,0,0,0)" y="-64" x="-128" height="32" width="32" id="rect2623-8" style="display:inline;fill:#000000;fill-opacity:1;stroke:none;stroke-width:2;stroke-miterlimit:4;stroke-dasharray:none"/><svg:rect style="display:inline;fill:#000000;fill-opacity:1;stroke:none;stroke-width:2;stroke-miterlimit:4;stroke-dasharray:none" id="rect2625-0" width="32" height="32" x="-128" y="-128" transform="matrix(0,-1,-1,0,0,0)"/><svg:rect transform="matrix(0,-1,-1,0,0,0)" y="-192" x="-256" height="32" width="32" id="rect2627-4" style="display:inline;fill:#000000;fill-opacity:1;stroke:none;stroke-width:2;stroke-miterlimit:4;stroke-dasharray:none"/><svg:rect style="display:inline;fill:#000000;fill-opacity:1;stroke:none;stroke-width:2;stroke-miterlimit:4;stroke-dasharray:none" id="rect2629-0" width="32" height="32" x="-160" y="-224" transform="matrix(0,-1,-1,0,0,0)"/><svg:rect transform="matrix(0,-1,-1,0,0,0)" y="-224" x="-64" height="32" width="32" id="rect2631-8" style="display:inline;fill:#000000;fill-opacity:1;stroke:none;stroke-width:2;stroke-miterlimit:4;stroke-dasharray:none"/><svg:rect style="display:inline;fill:#000000;fill-opacity:1;stroke:none;stroke-width:2;stroke-miterlimit:4;stroke-dasharray:none" id="rect2633-0" width="32" height="32" x="-160" y="-128" transform="matrix(0,-1,-1,0,0,0)"/><svg:rect transform="matrix(0,-1,-1,0,0,0)" y="-160" x="-192" height="32" width="32" id="rect2635-3" style="display:inline;fill:#000000;fill-opacity:1;stroke:none;stroke-width:2;stroke-miterlimit:4;stroke-dasharray:none"/><svg:rect transform="matrix(0,-1,-1,0,0,0)" y="-96" x="-224" height="32" width="32" id="rect2638-3" style="display:inline;fill:#000000;fill-opacity:1;stroke:none;stroke-width:2;stroke-miterlimit:4;stroke-dasharray:none"/><svg:rect style="display:inline;fill:#000000;fill-opacity:1;stroke:none;stroke-width:2;stroke-miterlimit:4;stroke-dasharray:none" id="rect2641-1" width="32" height="32" x="-256" y="-64" transform="matrix(0,-1,-1,0,0,0)"/><svg:rect transform="matrix(0,-1,-1,0,0,0)" y="-224" x="-192" height="32" width="32" id="rect2643-3" style="display:inline;fill:#000000;fill-opacity:1;stroke:none;stroke-width:2;stroke-miterlimit:4;stroke-dasharray:none"/></svg:g></svg>