<svg xmlns:dc="http://purl.org/dc/elements/1.1/" xmlns:cc="http://creativecommons.org/ns#" xmlns:rdf="http://www.w3.org/1999/02/22-rdf-syntax-ns#" xmlns:svg="http://www.w3.org/2000/svg" xmlns="http://www.w3.org/2000/svg" xmlns:sodipodi="http://sodipodi.sourceforge.net/DTD/sodipodi-0.dtd" xmlns:inkscape="http://www.inkscape.org/namespaces/inkscape" inkscape:export-ydpi="48" inkscape:export-xdpi="48" inkscape:export-filename="/Users/jamie/Desktop/PNG Files/Window-Top.png" inkscape:version="1.0 (4035a4f, 2020-05-01)" sodipodi:docname="8 Bit Dungeon Sprites.svg" viewBox="0 0 256 256" height="256" width="256" xml:space="preserve" id="svg5857" version="1.1"><metadata id="metadata5863"><rdf:RDF><cc:Work rdf:about=""><dc:format>image/svg+xml</dc:format><dc:type rdf:resource="http://purl.org/dc/dcmitype/StillImage"/><dc:title/></cc:Work></rdf:RDF></metadata><defs id="defs5861"/><sodipodi:namedview inkscape:document-rotation="0" inkscape:current-layer="layer134" inkscape:window-maximized="0" inkscape:window-y="23" inkscape:window-x="0" inkscape:cy="62.903159" inkscape:cx="519.01709" inkscape:zoom="1.4447115" showgrid="true" id="namedview5859" inkscape:window-height="1377" inkscape:window-width="2224" inkscape:pageshadow="2" inkscape:pageopacity="0" guidetolerance="10" gridtolerance="10000" objecttolerance="10" borderopacity="1" bordercolor="#666666" pagecolor="#ffffff" showguides="true" inkscape:guide-bbox="true"><inkscape:grid empspacing="32" id="grid5907" type="xygrid"/></sodipodi:namedview><svg:g inkscape:groupmode="layer" id="layer34" inkscape:label="Dirt" style="display:inline"><svg:rect transform="scale(1,-1)" y="-32" x="0" height="32" width="32" id="rect3410-9" style="display:inline;fill:#000000;fill-opacity:1;stroke:none;stroke-width:2;stroke-miterlimit:4;stroke-dasharray:none"/><svg:rect style="display:inline;fill:#000000;fill-opacity:1;stroke:none;stroke-width:2;stroke-miterlimit:4;stroke-dasharray:none" id="rect4072" width="32" height="32" x="32" y="-32" transform="scale(1,-1)"/><svg:rect transform="scale(1,-1)" y="-32" x="64" height="32" width="32" id="rect4074" style="display:inline;fill:#000000;fill-opacity:1;stroke:none;stroke-width:2;stroke-miterlimit:4;stroke-dasharray:none"/><svg:rect style="display:inline;fill:#000000;fill-opacity:1;stroke:none;stroke-width:2;stroke-miterlimit:4;stroke-dasharray:none" id="rect4076" width="32" height="32" x="96" y="-32" transform="scale(1,-1)"/><svg:rect transform="scale(1,-1)" y="-32" x="128" height="32" width="32" id="rect4078" style="display:inline;fill:#000000;fill-opacity:1;stroke:none;stroke-width:2;stroke-miterlimit:4;stroke-dasharray:none"/><svg:rect style="display:inline;fill:#000000;fill-opacity:1;stroke:none;stroke-width:2;stroke-miterlimit:4;stroke-dasharray:none" id="rect4080" width="32" height="32" x="160" y="-32" transform="scale(1,-1)"/><svg:rect transform="scale(1,-1)" y="-32" x="192" height="32" width="32" id="rect4082" style="display:inline;fill:#000000;fill-opacity:1;stroke:none;stroke-width:2;stroke-miterlimit:4;stroke-dasharray:none"/><svg:rect style="display:inline;fill:#000000;fill-opacity:1;stroke:none;stroke-width:2;stroke-miterlimit:4;stroke-dasharray:none" id="rect4084" width="32" height="32" x="224" y="-32" transform="scale(1,-1)"/><svg:rect style="display:inline;fill:#000000;fill-opacity:1;stroke:none;stroke-width:2;stroke-miterlimit:4;stroke-dasharray:none" id="rect4086" width="32" height="32" x="0" y="-64" transform="scale(1,-1)"/><svg:rect style="display:inline;fill:#000000;fill-opacity:1;stroke:none;stroke-width:2;stroke-miterlimit:4;stroke-dasharray:none" id="rect4090" width="32" height="32" x="64" y="-64" transform="scale(1,-1)"/><svg:rect transform="scale(1,-1)" y="-64" x="96" height="32" width="32" id="rect4092" style="display:inline;fill:#000000;fill-opacity:1;stroke:none;stroke-width:2;stroke-miterlimit:4;stroke-dasharray:none"/><svg:rect style="display:inline;fill:#000000;fill-opacity:1;stroke:none;stroke-width:2;stroke-miterlimit:4;stroke-dasharray:none" id="rect4094" width="32" height="32" x="128" y="-64" transform="scale(1,-1)"/><svg:rect transform="scale(1,-1)" y="-64" x="160" height="32" width="32" id="rect4096" style="display:inline;fill:#000000;fill-opacity:1;stroke:none;stroke-width:2;stroke-miterlimit:4;stroke-dasharray:none"/><svg:rect style="display:inline;fill:#000000;fill-opacity:1;stroke:none;stroke-width:2;stroke-miterlimit:4;stroke-dasharray:none" id="rect4098" width="32" height="32" x="192" y="-64" transform="scale(1,-1)"/><svg:rect transform="scale(1,-1)" y="-64" x="224" height="32" width="32" id="rect4100" style="display:inline;fill:#000000;fill-opacity:1;stroke:none;stroke-width:2;stroke-miterlimit:4;stroke-dasharray:none"/><svg:rect style="display:inline;fill:#000000;fill-opacity:1;stroke:none;stroke-width:2;stroke-miterlimit:4;stroke-dasharray:none" id="rect4102" width="32" height="32" x="0" y="-96" transform="scale(1,-1)"/><svg:rect transform="scale(1,-1)" y="-96" x="32" height="32" width="32" id="rect4104" style="display:inline;fill:#000000;fill-opacity:1;stroke:none;stroke-width:2;stroke-miterlimit:4;stroke-dasharray:none"/><svg:rect style="display:inline;fill:#000000;fill-opacity:1;stroke:none;stroke-width:2;stroke-miterlimit:4;stroke-dasharray:none" id="rect4106" width="32" height="32" x="64" y="-96" transform="scale(1,-1)"/><svg:rect transform="scale(1,-1)" y="-96" x="96" height="32" width="32" id="rect4108" style="display:inline;fill:#000000;fill-opacity:1;stroke:none;stroke-width:2;stroke-miterlimit:4;stroke-dasharray:none"/><svg:rect style="display:inline;fill:#000000;fill-opacity:1;stroke:none;stroke-width:2;stroke-miterlimit:4;stroke-dasharray:none" id="rect4110" width="32" height="32" x="128" y="-96" transform="scale(1,-1)"/><svg:rect style="display:inline;fill:#000000;fill-opacity:1;stroke:none;stroke-width:2;stroke-miterlimit:4;stroke-dasharray:none" id="rect4114" width="32" height="32" x="192" y="-96" transform="scale(1,-1)"/><svg:rect transform="scale(1,-1)" y="-96" x="224" height="32" width="32" id="rect4116" style="display:inline;fill:#000000;fill-opacity:1;stroke:none;stroke-width:2;stroke-miterlimit:4;stroke-dasharray:none"/><svg:rect transform="scale(1,-1)" y="-128" x="0" height="32" width="32" id="rect4118" style="display:inline;fill:#000000;fill-opacity:1;stroke:none;stroke-width:2;stroke-miterlimit:4;stroke-dasharray:none"/><svg:rect style="display:inline;fill:#000000;fill-opacity:1;stroke:none;stroke-width:2;stroke-miterlimit:4;stroke-dasharray:none" id="rect4120" width="32" height="32" x="32" y="-128" transform="scale(1,-1)"/><svg:rect transform="scale(1,-1)" y="-128" x="64" height="32" width="32" id="rect4122" style="display:inline;fill:#000000;fill-opacity:1;stroke:none;stroke-width:2;stroke-miterlimit:4;stroke-dasharray:none"/><svg:rect style="display:inline;fill:#000000;fill-opacity:1;stroke:none;stroke-width:2;stroke-miterlimit:4;stroke-dasharray:none" id="rect4124" width="32" height="32" x="96" y="-128" transform="scale(1,-1)"/><svg:rect transform="scale(1,-1)" y="-128" x="128" height="32" width="32" id="rect4126" style="display:inline;fill:#000000;fill-opacity:1;stroke:none;stroke-width:2;stroke-miterlimit:4;stroke-dasharray:none"/><svg:rect style="display:inline;fill:#000000;fill-opacity:1;stroke:none;stroke-width:2;stroke-miterlimit:4;stroke-dasharray:none" id="rect4128" width="32" height="32" x="160" y="-128" transform="scale(1,-1)"/><svg:rect transform="scale(1,-1)" y="-128" x="192" height="32" width="32" id="rect4130" style="display:inline;fill:#000000;fill-opacity:1;stroke:none;stroke-width:2;stroke-miterlimit:4;stroke-dasharray:none"/><svg:rect style="display:inline;fill:#000000;fill-opacity:1;stroke:none;stroke-width:2;stroke-miterlimit:4;stroke-dasharray:none" id="rect4132" width="32" height="32" x="224" y="-128" transform="scale(1,-1)"/><svg:rect transform="scale(1,-1)" y="-160" x="0" height="32" width="32" id="rect4134" style="display:inline;fill:#000000;fill-opacity:1;stroke:none;stroke-width:2;stroke-miterlimit:4;stroke-dasharray:none"/><svg:rect style="display:inline;fill:#000000;fill-opacity:1;stroke:none;stroke-width:2;stroke-miterlimit:4;stroke-dasharray:none" id="rect4136" width="32" height="32" x="32" y="-160" transform="scale(1,-1)"/><svg:rect transform="scale(1,-1)" y="-160" x="64" height="32" width="32" id="rect4138" style="display:inline;fill:#000000;fill-opacity:1;stroke:none;stroke-width:2;stroke-miterlimit:4;stroke-dasharray:none"/><svg:rect style="display:inline;fill:#000000;fill-opacity:1;stroke:none;stroke-width:2;stroke-miterlimit:4;stroke-dasharray:none" id="rect4140" width="32" height="32" x="96" y="-160" transform="scale(1,-1)"/><svg:rect transform="scale(1,-1)" y="-160" x="128" height="32" width="32" id="rect4142" style="display:inline;fill:#000000;fill-opacity:1;stroke:none;stroke-width:2;stroke-miterlimit:4;stroke-dasharray:none"/><svg:rect style="display:inline;fill:#000000;fill-opacity:1;stroke:none;stroke-width:2;stroke-miterlimit:4;stroke-dasharray:none" id="rect4144" width="32" height="32" x="160" y="-160" transform="scale(1,-1)"/><svg:rect style="display:inline;fill:#000000;fill-opacity:1;stroke:none;stroke-width:2;stroke-miterlimit:4;stroke-dasharray:none" id="rect4148" width="32" height="32" x="224" y="-160" transform="scale(1,-1)"/><svg:rect transform="scale(1,-1)" y="-192" x="32" height="32" width="32" id="rect4152" style="display:inline;fill:#000000;fill-opacity:1;stroke:none;stroke-width:2;stroke-miterlimit:4;stroke-dasharray:none"/><svg:rect style="display:inline;fill:#000000;fill-opacity:1;stroke:none;stroke-width:2;stroke-miterlimit:4;stroke-dasharray:none" id="rect4154" width="32" height="32" x="64" y="-192" transform="scale(1,-1)"/><svg:rect transform="scale(1,-1)" y="-192" x="96" height="32" width="32" id="rect4156" style="display:inline;fill:#000000;fill-opacity:1;stroke:none;stroke-width:2;stroke-miterlimit:4;stroke-dasharray:none"/><svg:rect style="display:inline;fill:#000000;fill-opacity:1;stroke:none;stroke-width:2;stroke-miterlimit:4;stroke-dasharray:none" id="rect4158" width="32" height="32" x="128" y="-192" transform="scale(1,-1)"/><svg:rect transform="scale(1,-1)" y="-192" x="160" height="32" width="32" id="rect4160" style="display:inline;fill:#000000;fill-opacity:1;stroke:none;stroke-width:2;stroke-miterlimit:4;stroke-dasharray:none"/><svg:rect style="display:inline;fill:#000000;fill-opacity:1;stroke:none;stroke-width:2;stroke-miterlimit:4;stroke-dasharray:none" id="rect4162" width="32" height="32" x="192" y="-192" transform="scale(1,-1)"/><svg:rect style="display:inline;fill:#000000;fill-opacity:1;stroke:none;stroke-width:2;stroke-miterlimit:4;stroke-dasharray:none" id="rect4166" width="32" height="32" x="0" y="-224" transform="scale(1,-1)"/><svg:rect transform="scale(1,-1)" y="-224" x="32" height="32" width="32" id="rect4168" style="display:inline;fill:#000000;fill-opacity:1;stroke:none;stroke-width:2;stroke-miterlimit:4;stroke-dasharray:none"/><svg:rect style="display:inline;fill:#000000;fill-opacity:1;stroke:none;stroke-width:2;stroke-miterlimit:4;stroke-dasharray:none" id="rect4170" width="32" height="32" x="64" y="-224" transform="scale(1,-1)"/><svg:rect style="display:inline;fill:#000000;fill-opacity:1;stroke:none;stroke-width:2;stroke-miterlimit:4;stroke-dasharray:none" id="rect4174" width="32" height="32" x="128" y="-224" transform="scale(1,-1)"/><svg:rect transform="scale(1,-1)" y="-224" x="160" height="32" width="32" id="rect4176" style="display:inline;fill:#000000;fill-opacity:1;stroke:none;stroke-width:2;stroke-miterlimit:4;stroke-dasharray:none"/><svg:rect style="display:inline;fill:#000000;fill-opacity:1;stroke:none;stroke-width:2;stroke-miterlimit:4;stroke-dasharray:none" id="rect4178" width="32" height="32" x="192" y="-224" transform="scale(1,-1)"/><svg:rect transform="scale(1,-1)" y="-224" x="224" height="32" width="32" id="rect4180" style="display:inline;fill:#000000;fill-opacity:1;stroke:none;stroke-width:2;stroke-miterlimit:4;stroke-dasharray:none"/><svg:rect transform="scale(1,-1)" y="-256" x="0" height="32" width="32" id="rect4182" style="display:inline;fill:#000000;fill-opacity:1;stroke:none;stroke-width:2;stroke-miterlimit:4;stroke-dasharray:none"/><svg:rect style="display:inline;fill:#000000;fill-opacity:1;stroke:none;stroke-width:2;stroke-miterlimit:4;stroke-dasharray:none" id="rect4184" width="32" height="32" x="32" y="-256" transform="scale(1,-1)"/><svg:rect transform="scale(1,-1)" y="-256" x="64" height="32" width="32" id="rect4186" style="display:inline;fill:#000000;fill-opacity:1;stroke:none;stroke-width:2;stroke-miterlimit:4;stroke-dasharray:none"/><svg:rect style="display:inline;fill:#000000;fill-opacity:1;stroke:none;stroke-width:2;stroke-miterlimit:4;stroke-dasharray:none" id="rect4188" width="32" height="32" x="96" y="-256" transform="scale(1,-1)"/><svg:rect transform="scale(1,-1)" y="-256" x="128" height="32" width="32" id="rect4190" style="display:inline;fill:#000000;fill-opacity:1;stroke:none;stroke-width:2;stroke-miterlimit:4;stroke-dasharray:none"/><svg:rect style="display:inline;fill:#000000;fill-opacity:1;stroke:none;stroke-width:2;stroke-miterlimit:4;stroke-dasharray:none" id="rect4192" width="32" height="32" x="160" y="-256" transform="scale(1,-1)"/><svg:rect transform="scale(1,-1)" y="-256" x="192" height="32" width="32" id="rect4194" style="display:inline;fill:#000000;fill-opacity:1;stroke:none;stroke-width:2;stroke-miterlimit:4;stroke-dasharray:none"/><svg:rect style="display:inline;fill:#000000;fill-opacity:1;stroke:none;stroke-width:2;stroke-miterlimit:4;stroke-dasharray:none" id="rect4196" width="32" height="32" x="224" y="-256" transform="scale(1,-1)"/></svg:g></svg>