<svg xmlns:dc="http://purl.org/dc/elements/1.1/" xmlns:cc="http://creativecommons.org/ns#" xmlns:rdf="http://www.w3.org/1999/02/22-rdf-syntax-ns#" xmlns:svg="http://www.w3.org/2000/svg" xmlns="http://www.w3.org/2000/svg" xmlns:sodipodi="http://sodipodi.sourceforge.net/DTD/sodipodi-0.dtd" xmlns:inkscape="http://www.inkscape.org/namespaces/inkscape" inkscape:export-ydpi="48" inkscape:export-xdpi="48" inkscape:export-filename="/Users/jamie/Desktop/PNG Files/Window-Top.png" inkscape:version="1.0 (4035a4f, 2020-05-01)" sodipodi:docname="8 Bit Dungeon Sprites.svg" viewBox="0 0 256 256" height="256" width="256" xml:space="preserve" id="svg5857" version="1.1"><metadata id="metadata5863"><rdf:RDF><cc:Work rdf:about=""><dc:format>image/svg+xml</dc:format><dc:type rdf:resource="http://purl.org/dc/dcmitype/StillImage"/><dc:title/></cc:Work></rdf:RDF></metadata><defs id="defs5861"/><sodipodi:namedview inkscape:document-rotation="0" inkscape:current-layer="layer134" inkscape:window-maximized="0" inkscape:window-y="23" inkscape:window-x="0" inkscape:cy="62.903159" inkscape:cx="519.01709" inkscape:zoom="1.4447115" showgrid="true" id="namedview5859" inkscape:window-height="1377" inkscape:window-width="2224" inkscape:pageshadow="2" inkscape:pageopacity="0" guidetolerance="10" gridtolerance="10000" objecttolerance="10" borderopacity="1" bordercolor="#666666" pagecolor="#ffffff" showguides="true" inkscape:guide-bbox="true"><inkscape:grid empspacing="32" id="grid5907" type="xygrid"/></sodipodi:namedview><svg:g style="display:inline" inkscape:label="Lava 01" id="layer21" inkscape:groupmode="layer"><svg:g id="g3280"><svg:rect style="fill:#000000;fill-opacity:1;stroke:none;stroke-width:2;stroke-miterlimit:4;stroke-dasharray:none" id="rect5929-8-3" width="32" height="32" x="0" y="-96" transform="scale(1,-1)"/><svg:rect style="fill:#000000;fill-opacity:1;stroke:none;stroke-width:2;stroke-miterlimit:4;stroke-dasharray:none" id="rect5929-5-3-0" width="32" height="32" x="224" y="-96" transform="scale(1,-1)"/><svg:rect style="fill:#000000;fill-opacity:1;stroke:none;stroke-width:2;stroke-miterlimit:4;stroke-dasharray:none" id="rect5929-5-9-7-7-6" width="32" height="32" x="32" y="-96" transform="scale(1,-1)"/><svg:rect style="fill:#000000;fill-opacity:1;stroke:none;stroke-width:2;stroke-miterlimit:4;stroke-dasharray:none" id="rect5929-541-0-0" width="32" height="32" x="64" y="-96" transform="scale(1,-1)"/><svg:rect style="fill:#000000;fill-opacity:1;stroke:none;stroke-width:2;stroke-miterlimit:4;stroke-dasharray:none" id="rect5929-5-9-7-5-46-4" width="32" height="32" x="96" y="-96" transform="scale(1,-1)"/><svg:rect style="fill:#000000;fill-opacity:1;stroke:none;stroke-width:2;stroke-miterlimit:4;stroke-dasharray:none" id="rect5929-541-2-7-8" width="32" height="32" x="128" y="-96" transform="scale(1,-1)"/><svg:rect style="fill:#000000;fill-opacity:1;stroke:none;stroke-width:2;stroke-miterlimit:4;stroke-dasharray:none" id="rect5929-5-9-7-5-8-8-0" width="32" height="32" x="160" y="-96" transform="scale(1,-1)"/><svg:rect style="fill:#000000;fill-opacity:1;stroke:none;stroke-width:2;stroke-miterlimit:4;stroke-dasharray:none" id="rect5929-5-91-1-3-3" width="32" height="32" x="192" y="-96" transform="scale(1,-1)"/><svg:rect style="fill:#000000;fill-opacity:1;stroke:none;stroke-width:2;stroke-miterlimit:4;stroke-dasharray:none" id="rect5929-8-9" width="32" height="32" x="0" y="-128" transform="scale(1,-1)"/><svg:rect style="fill:#000000;fill-opacity:1;stroke:none;stroke-width:2;stroke-miterlimit:4;stroke-dasharray:none" id="rect5929-5-3-4" width="32" height="32" x="224" y="-128" transform="scale(1,-1)"/><svg:rect style="fill:#000000;fill-opacity:1;stroke:none;stroke-width:2;stroke-miterlimit:4;stroke-dasharray:none" id="rect5929-5-9-7-7-5" width="32" height="32" x="32" y="-128" transform="scale(1,-1)"/><svg:rect style="fill:#000000;fill-opacity:1;stroke:none;stroke-width:2;stroke-miterlimit:4;stroke-dasharray:none" id="rect5929-541-0-1" width="32" height="32" x="64" y="-128" transform="scale(1,-1)"/><svg:rect style="fill:#000000;fill-opacity:1;stroke:none;stroke-width:2;stroke-miterlimit:4;stroke-dasharray:none" id="rect5929-5-9-7-5-46-1" width="32" height="32" x="96" y="-128" transform="scale(1,-1)"/><svg:rect style="fill:#000000;fill-opacity:1;stroke:none;stroke-width:2;stroke-miterlimit:4;stroke-dasharray:none" id="rect5929-541-2-7-0" width="32" height="32" x="128" y="-128" transform="scale(1,-1)"/><svg:rect style="fill:#000000;fill-opacity:1;stroke:none;stroke-width:2;stroke-miterlimit:4;stroke-dasharray:none" id="rect5929-5-9-7-5-8-8-7" width="32" height="32" x="160" y="-128" transform="scale(1,-1)"/><svg:rect style="fill:#000000;fill-opacity:1;stroke:none;stroke-width:2;stroke-miterlimit:4;stroke-dasharray:none" id="rect5929-8-4" width="32" height="32" x="0" y="-160" transform="scale(1,-1)"/><svg:rect style="fill:#000000;fill-opacity:1;stroke:none;stroke-width:2;stroke-miterlimit:4;stroke-dasharray:none" id="rect5929-5-3-5" width="32" height="32" x="224" y="-160" transform="scale(1,-1)"/><svg:rect style="fill:#000000;fill-opacity:1;stroke:none;stroke-width:2;stroke-miterlimit:4;stroke-dasharray:none" id="rect5929-5-9-7-7-1" width="32" height="32" x="32" y="-160" transform="scale(1,-1)"/><svg:rect style="fill:#000000;fill-opacity:1;stroke:none;stroke-width:2;stroke-miterlimit:4;stroke-dasharray:none" id="rect5929-541-0-4" width="32" height="32" x="64" y="-160" transform="scale(1,-1)"/><svg:rect style="fill:#000000;fill-opacity:1;stroke:none;stroke-width:2;stroke-miterlimit:4;stroke-dasharray:none" id="rect5929-5-9-7-5-46-2" width="32" height="32" x="96" y="-160" transform="scale(1,-1)"/><svg:rect style="fill:#000000;fill-opacity:1;stroke:none;stroke-width:2;stroke-miterlimit:4;stroke-dasharray:none" id="rect5929-541-2-7-4" width="32" height="32" x="128" y="-160" transform="scale(1,-1)"/><svg:rect style="fill:#000000;fill-opacity:1;stroke:none;stroke-width:2;stroke-miterlimit:4;stroke-dasharray:none" id="rect5929-5-9-7-5-8-8-06" width="32" height="32" x="160" y="-160" transform="scale(1,-1)"/><svg:rect style="fill:#000000;fill-opacity:1;stroke:none;stroke-width:2;stroke-miterlimit:4;stroke-dasharray:none" id="rect5929-5-91-1-3-7" width="32" height="32" x="192" y="-160" transform="scale(1,-1)"/><svg:rect style="fill:#000000;fill-opacity:1;stroke:none;stroke-width:2;stroke-miterlimit:4;stroke-dasharray:none" id="rect5929-8-1" width="32" height="32" x="0" y="-192" transform="scale(1,-1)"/><svg:rect style="fill:#000000;fill-opacity:1;stroke:none;stroke-width:2;stroke-miterlimit:4;stroke-dasharray:none" id="rect5929-5-3-59" width="32" height="32" x="224" y="-192" transform="scale(1,-1)"/><svg:rect style="fill:#000000;fill-opacity:1;stroke:none;stroke-width:2;stroke-miterlimit:4;stroke-dasharray:none" id="rect5929-5-9-7-7-15" width="32" height="32" x="32" y="-192" transform="scale(1,-1)"/><svg:rect style="fill:#000000;fill-opacity:1;stroke:none;stroke-width:2;stroke-miterlimit:4;stroke-dasharray:none" id="rect5929-541-0-00" width="32" height="32" x="64" y="-192" transform="scale(1,-1)"/><svg:rect style="fill:#000000;fill-opacity:1;stroke:none;stroke-width:2;stroke-miterlimit:4;stroke-dasharray:none" id="rect5929-541-2-7-9" width="32" height="32" x="128" y="-192" transform="scale(1,-1)"/><svg:rect style="fill:#000000;fill-opacity:1;stroke:none;stroke-width:2;stroke-miterlimit:4;stroke-dasharray:none" id="rect5929-5-9-7-5-8-8-4" width="32" height="32" x="160" y="-192" transform="scale(1,-1)"/><svg:rect style="fill:#000000;fill-opacity:1;stroke:none;stroke-width:2;stroke-miterlimit:4;stroke-dasharray:none" id="rect5929-5-91-1-3-34" width="32" height="32" x="192" y="-192" transform="scale(1,-1)"/><svg:rect style="fill:#000000;fill-opacity:1;stroke:none;stroke-width:2;stroke-miterlimit:4;stroke-dasharray:none" id="rect5929-8-44" width="32" height="32" x="0" y="-224" transform="scale(1,-1)"/><svg:rect style="fill:#000000;fill-opacity:1;stroke:none;stroke-width:2;stroke-miterlimit:4;stroke-dasharray:none" id="rect5929-5-3-43" width="32" height="32" x="224" y="-224" transform="scale(1,-1)"/><svg:rect style="fill:#000000;fill-opacity:1;stroke:none;stroke-width:2;stroke-miterlimit:4;stroke-dasharray:none" id="rect5929-5-9-7-7-57" width="32" height="32" x="32" y="-224" transform="scale(1,-1)"/><svg:rect style="fill:#000000;fill-opacity:1;stroke:none;stroke-width:2;stroke-miterlimit:4;stroke-dasharray:none" id="rect5929-541-0-7" width="32" height="32" x="64" y="-224" transform="scale(1,-1)"/><svg:rect style="fill:#000000;fill-opacity:1;stroke:none;stroke-width:2;stroke-miterlimit:4;stroke-dasharray:none" id="rect5929-5-9-7-5-46-7" width="32" height="32" x="96" y="-224" transform="scale(1,-1)"/><svg:rect style="fill:#000000;fill-opacity:1;stroke:none;stroke-width:2;stroke-miterlimit:4;stroke-dasharray:none" id="rect5929-541-2-7-2" width="32" height="32" x="128" y="-224" transform="scale(1,-1)"/><svg:rect style="fill:#000000;fill-opacity:1;stroke:none;stroke-width:2;stroke-miterlimit:4;stroke-dasharray:none" id="rect5929-5-9-7-5-8-8-42" width="32" height="32" x="160" y="-224" transform="scale(1,-1)"/><svg:rect style="fill:#000000;fill-opacity:1;stroke:none;stroke-width:2;stroke-miterlimit:4;stroke-dasharray:none" id="rect5929-5-91-1-3-9" width="32" height="32" x="192" y="-224" transform="scale(1,-1)"/><svg:rect style="fill:#000000;fill-opacity:1;stroke:none;stroke-width:2;stroke-miterlimit:4;stroke-dasharray:none" id="rect5929-8-93" width="32" height="32" x="0" y="-256" transform="scale(1,-1)"/><svg:rect style="fill:#000000;fill-opacity:1;stroke:none;stroke-width:2;stroke-miterlimit:4;stroke-dasharray:none" id="rect5929-5-3-7" width="32" height="32" x="224" y="-256" transform="scale(1,-1)"/><svg:rect style="fill:#000000;fill-opacity:1;stroke:none;stroke-width:2;stroke-miterlimit:4;stroke-dasharray:none" id="rect5929-5-9-7-7-0" width="32" height="32" x="32" y="-256" transform="scale(1,-1)"/><svg:rect style="fill:#000000;fill-opacity:1;stroke:none;stroke-width:2;stroke-miterlimit:4;stroke-dasharray:none" id="rect5929-541-0-06" width="32" height="32" x="64" y="-256" transform="scale(1,-1)"/><svg:rect style="fill:#000000;fill-opacity:1;stroke:none;stroke-width:2;stroke-miterlimit:4;stroke-dasharray:none" id="rect5929-5-9-7-5-46-6" width="32" height="32" x="96" y="-256" transform="scale(1,-1)"/><svg:rect style="fill:#000000;fill-opacity:1;stroke:none;stroke-width:2;stroke-miterlimit:4;stroke-dasharray:none" id="rect5929-541-2-7-25" width="32" height="32" x="128" y="-256" transform="scale(1,-1)"/><svg:rect style="fill:#000000;fill-opacity:1;stroke:none;stroke-width:2;stroke-miterlimit:4;stroke-dasharray:none" id="rect5929-5-9-7-5-8-8-8" width="32" height="32" x="160" y="-256" transform="scale(1,-1)"/><svg:rect style="display:inline;fill:#000000;fill-opacity:1;stroke:none;stroke-width:2;stroke-miterlimit:4;stroke-dasharray:none" id="rect5929-5-9-7-7-6-6" width="32" height="32" x="32" y="-64" transform="scale(1,-1)"/><svg:rect style="display:inline;fill:#000000;fill-opacity:1;stroke:none;stroke-width:2;stroke-miterlimit:4;stroke-dasharray:none" id="rect5929-541-0-0-5" width="32" height="32" x="64" y="-64" transform="scale(1,-1)"/><svg:rect style="display:inline;fill:#000000;fill-opacity:1;stroke:none;stroke-width:2;stroke-miterlimit:4;stroke-dasharray:none" id="rect5929-5-9-7-5-8-8-0-4" width="32" height="32" x="160" y="-64" transform="scale(1,-1)"/><svg:rect style="display:inline;fill:#000000;fill-opacity:1;stroke:none;stroke-width:2;stroke-miterlimit:4;stroke-dasharray:none" id="rect5929-5-91-1-3-3-6" width="32" height="32" x="192" y="-64" transform="scale(1,-1)"/></svg:g></svg:g></svg>